<?xml version="1.0" encoding="utf-8"?>
<!-- Generator: Adobe Illustrator 25.2.0, SVG Export Plug-In . SVG Version: 6.00 Build 0)  -->
<svg version="1.1" id="Слой_1" xmlns="http://www.w3.org/2000/svg" xmlns:xlink="http://www.w3.org/1999/xlink" x="0px" y="0px"
	 viewBox="0 0 215 215" style="enable-background:new 0 0 215 215;" xml:space="preserve">
<style type="text/css">
	.st0{fill:#F0F0F0;}
	.st1{fill:#FFCD00;}
	.st2{fill:#FF8300;}
	.st3{fill:#E1251B;}
</style>
<rect class="st0" width="215" height="215"/>
<g>
	<path class="st1" d="M95.2,101.5c8.4-14,16.4-27.1,15.6-38.3l-0.5-7.7l3.7,4.7c1.4,1.8,2.7,3.5,3.8,5.4
		c1.5-10.4-1.3-21.2-10.2-32.5c0.9,13-7.6,26.9-16.8,42.1c-7.6,12.6-9.4,26.1-1.8,40.4c1.2-4.3,3.1-8.6,5.7-12.9L95.2,101.5z"/>
	<path class="st2" d="M102.8,129.4c8.4-13.9,16.3-27.1,15.6-38.3l-0.5-7.7l3.7,4.6c0.6,0.8,1.2,1.5,1.7,2.3
		c0.2-8.9-3-18.2-10.6-27.8c0.9,13-7.7,26.9-16.8,42.1c-8.1,13.4-9.6,27.8-0.4,43c1-5.8,3.2-11.6,6.6-17.2L102.8,129.4z"/>
	<path class="st3" d="M120.4,90.7c0.9,13.1-7.7,26.9-16.8,42.1c-9.2,15.2-9.9,31.7,3.9,49.1c-0.9-13,7.7-26.8,16.8-42.1
		C133.5,124.7,134.1,108.2,120.4,90.7"/>
</g>
</svg>
